<svg width="25" height="24" viewBox="0 0 25 24" fill="none" xmlns="http://www.w3.org/2000/svg">
<rect x="0.5" width="24" height="24" rx="6" fill="#121318"/>
<mask id="mask0_222_3050" style="mask-type:alpha" maskUnits="userSpaceOnUse" x="6" y="4" width="12" height="8">
<path d="M6.5 10.2902L14.3366 10.3544C14.3366 10.3544 16.0662 10.5773 17.5437 11.8934C17.6277 11.9677 17.9565 11.8934 17.9565 11.8934L17.9165 4L6.5 4.01351V10.2902Z" fill="white"/>
</mask>
<g mask="url(#mask0_222_3050)">
<path fill-rule="evenodd" clip-rule="evenodd" d="M16.2917 5.77789C15.3595 4.99952 14.0768 4.6095 12.4438 4.6095C10.2605 4.6095 9.29248 4.6095 8.37523 4.6095V5.18609C8.37523 5.18609 10.5835 5.18609 12.3689 5.18609C13.7572 5.18609 15.0141 5.4765 15.7815 6.14849C16.5489 6.82133 17.1307 7.82257 17.1307 9.05849C17.1307 10.2514 16.6272 11.1353 15.8289 11.8039C15.0307 12.4725 13.6074 12.7671 12.1824 12.7671C10.4819 12.7671 7.59448 12.7671 7.59448 12.7671V13.3437C7.59448 13.3437 11.5007 13.3429 12.214 13.3429C13.9328 13.3429 15.2754 12.9638 16.2418 12.2074C17.2082 11.4501 17.6909 10.3856 17.6909 9.01206C17.6909 7.63515 17.2248 6.55709 16.2917 5.77789Z" fill="white"/>
<path fill-rule="evenodd" clip-rule="evenodd" d="M15.9472 6.61366C15.3671 6.16707 14.7003 5.80743 12.8142 5.80743C10.78 5.80828 10.5311 5.80743 9.67627 5.80743V6.36968C9.67627 6.36968 11.0804 6.35111 12.7443 6.36968C14.3524 6.38656 14.9426 6.5706 15.4836 6.97667C16.1761 7.49586 16.6056 8.13661 16.6056 9.03317C16.6056 9.89764 16.1695 10.5097 15.4736 11.0289C14.7619 11.5607 13.6741 11.5666 13.2312 11.5768C13.0639 11.581 10.9015 11.5768 10.9015 11.5768V12.139C10.9015 12.139 11.9777 12.1542 12.6428 12.1382C14.1693 12.1036 15.0749 12.0115 15.9181 11.3759C16.7096 10.7807 17.1283 9.99472 17.1283 8.9994C17.1283 7.68665 16.4808 7.02479 15.9472 6.61366Z" fill="white"/>
<path fill-rule="evenodd" clip-rule="evenodd" d="M15.6666 7.35575C15.2313 7.07884 14.8493 6.89227 13.0472 6.89227C11.216 6.89227 11.5615 6.89227 10.7915 6.89227V7.26204C10.7915 7.26204 11.4874 7.26204 12.9848 7.26204C14.5812 7.26204 15.1864 7.54991 15.3695 7.66388C15.7282 7.88675 16.201 8.24977 16.201 8.98929C16.201 9.46205 15.9255 10.0555 15.5185 10.2885C15.1472 10.5004 14.4689 10.6904 13.2736 10.6904C13.123 10.6904 5.90564 10.6904 5.90564 10.6904V11.0601C5.90564 11.0601 12.7018 11.0601 13.3011 11.0601C14.7419 11.0601 15.2363 10.8981 15.744 10.6136C16.2534 10.3291 16.593 9.74402 16.593 8.99267C16.593 8.15353 16.1311 7.65038 15.6666 7.35575Z" fill="white"/>
</g>
<path fill-rule="evenodd" clip-rule="evenodd" d="M17.1008 11.435C16.1686 10.6558 14.8851 10.2667 13.2529 10.2667C11.0688 10.2667 11.4491 10.2658 10.5311 10.2658V10.8424C10.5311 10.8424 11.3917 10.8424 13.1771 10.8424C14.5655 10.8424 15.8232 11.1328 16.5906 11.8048C17.358 12.4776 17.939 13.4789 17.939 14.7156C17.939 15.9077 17.4363 16.7916 16.638 17.4602C15.8398 18.1288 14.4156 18.4234 12.9907 18.4234C11.291 18.4234 8.40356 18.4234 8.40356 18.4234V19C8.40356 19 12.309 18.9992 13.0231 18.9992C14.7419 18.9992 16.0837 18.621 17.05 17.8637C18.0164 17.1073 18.5 16.0419 18.5 14.6692C18.5 13.2915 18.0339 12.2134 17.1008 11.435Z" fill="white"/>
<path fill-rule="evenodd" clip-rule="evenodd" d="M16.7563 12.2699C16.1762 11.8242 15.5095 11.4637 13.6234 11.4637C11.5882 11.4645 10.2124 11.4637 9.35754 11.4637V12.0259C9.35754 12.0259 11.8887 12.0074 13.5534 12.0259C15.1615 12.0428 15.7508 12.2269 16.2919 12.6329C16.9852 13.153 17.4147 13.7929 17.4147 14.6894C17.4147 15.5539 16.9786 16.1659 16.2827 16.686C15.5711 17.217 14.4832 17.2237 14.0395 17.2339C13.8722 17.2372 11.7098 17.2339 11.7098 17.2339V17.7953C11.7098 17.7953 12.786 17.8105 13.4519 17.7953C14.9776 17.7598 15.884 17.6678 16.7272 17.0329C17.5179 16.4369 17.9366 15.651 17.9366 14.6556C17.9366 13.3437 17.2899 12.681 16.7563 12.2699Z" fill="white"/>
<path fill-rule="evenodd" clip-rule="evenodd" d="M10.2706 14.1778H14.2684V13.8638H10.2706V14.1778Z" fill="white"/>
<path fill-rule="evenodd" clip-rule="evenodd" d="M11.9194 15.2761H14.245V15.006H11.9194V15.2761Z" fill="white"/>
<path fill-rule="evenodd" clip-rule="evenodd" d="M8.40356 14.1778H9.588V13.8638H8.40356V14.1778Z" fill="white"/>
<path fill-rule="evenodd" clip-rule="evenodd" d="M7.66528 15.2981H11.2627V14.9841H7.66528V15.2981Z" fill="white"/>
<path fill-rule="evenodd" clip-rule="evenodd" d="M8.55176 7.23751H9.95344V6.97833H8.55176V7.23751Z" fill="white"/>
<path fill-rule="evenodd" clip-rule="evenodd" d="M7.57532 9.33965H10.7857V9.03827H7.57532V9.33965Z" fill="white"/>
<path fill-rule="evenodd" clip-rule="evenodd" d="M7.66528 17.7565H11.0505V17.3799H7.66528V17.7565Z" fill="white"/>
<path fill-rule="evenodd" clip-rule="evenodd" d="M6.82129 18.9772H7.66779V18.4318H6.82129V18.9772Z" fill="white"/>
<path fill-rule="evenodd" clip-rule="evenodd" d="M8.93713 8.41949H14.2525V8.1181H8.93713V8.41949Z" fill="white"/>
<path fill-rule="evenodd" clip-rule="evenodd" d="M11.595 9.33965H14.152V9.03827H11.595V9.33965Z" fill="white"/>
<path fill-rule="evenodd" clip-rule="evenodd" d="M16.4757 13.0685C16.0396 12.8009 15.6575 12.6211 13.8563 12.6211C12.0251 12.6211 11.7513 12.6211 10.9822 12.6211V12.9782C10.9822 12.9782 12.2956 12.9782 13.793 12.9782C15.3895 12.9782 15.9955 13.2559 16.1786 13.3665C16.5365 13.5818 17.0101 13.9313 17.0101 14.6455C17.0101 15.1022 16.7346 15.6746 16.3267 15.8992C15.9555 16.1043 15.2771 16.2875 14.0819 16.2875C13.9312 16.2875 6.71472 16.2875 6.71472 16.2875V16.6446C6.71472 16.6446 13.5109 16.6438 14.1093 16.6438C15.551 16.6438 16.0454 16.4876 16.5531 16.2132C17.0617 15.938 17.4013 15.3732 17.4013 14.648C17.4013 13.8384 16.9402 13.353 16.4757 13.0685Z" fill="white"/>
</svg>
