<svg width="24" height="24" viewBox="0 0 24 24" fill="none" xmlns="http://www.w3.org/2000/svg">
<rect width="24" height="24" rx="6" fill="#121318"/>
<g clip-path="url(#clip0_222_3041)">
<path d="M4.00071 5.95562C4.03607 4.91075 4.99607 3.97997 6.05268 3.9997C7.58367 4.00313 9.11467 3.9997 10.6465 4.00141C11.4107 5.08232 12.1896 6.15208 12.9478 7.23556C12.0309 8.52578 11.1071 9.81086 10.1911 11.1019C9.82195 11.6278 9.81936 12.3664 10.1877 12.8949C11.1037 14.1868 12.0292 15.4736 12.9469 16.7647C12.1887 17.8482 11.4099 18.9188 10.6457 19.9997H5.97419C4.91586 19.9748 3.98346 19.008 3.99985 17.9563C4.00243 13.9561 3.99985 9.95584 4.00071 5.95562Z" fill="#EC6E56"/>
<path d="M12.2536 11.6547C12.791 10.9006 13.3266 10.1457 13.8683 9.39594C14.4142 10.1586 14.9611 10.9221 15.5036 11.6873C15.6546 11.8829 15.6304 12.1763 15.4717 12.3616C14.9361 13.1088 14.4039 13.8585 13.8683 14.6049C13.3145 13.8337 12.7608 13.0642 12.2148 12.2869C12.0699 12.0999 12.1044 11.8288 12.2536 11.6547Z" fill="#EC6E56"/>
<path d="M12.3467 4.00173C14.2977 4.00344 16.2497 3.99915 18.1998 4.00344C19.1952 4.04977 20.0163 4.97883 19.9991 5.95937C19.9991 9.98618 19.9982 14.013 19.9991 18.0398C20.0172 19.022 19.1943 19.9528 18.1973 19.9983C16.2471 20.0017 14.296 19.9983 12.3458 19.9992C14.02 17.6606 15.6873 15.3178 17.3597 12.9775C17.6357 12.6147 17.7479 12.1368 17.6573 11.6908C17.6056 11.3485 17.3934 11.0654 17.195 10.7926C15.5777 8.52953 13.9657 6.26391 12.3467 4.00173Z" fill="#003894"/>
</g>
<defs>
<clipPath id="clip0_222_3041">
<rect width="16" height="16" fill="white" transform="translate(4 4)"/>
</clipPath>
</defs>
</svg>
