<svg width="25" height="24" viewBox="0 0 25 24" fill="none" xmlns="http://www.w3.org/2000/svg">
<rect x="0.5" width="24" height="24" rx="6" fill="#121318"/>
<path d="M20.5 18.9172L15.7898 14.3628C16.4629 13.5877 16.8688 12.5892 16.8688 11.5003C16.8688 9.04141 14.8 7.04036 12.2563 7.04036C9.71271 7.04036 7.64379 9.04084 7.64379 11.5003C7.64379 13.9598 9.71271 15.9602 12.2563 15.9602C13.2389 15.9602 14.1503 15.6605 14.8995 15.1519L16.2844 16.491C15.1727 17.332 13.7739 17.8336 12.2563 17.8336C8.64508 17.8336 5.70636 14.9921 5.70636 11.5003C5.70636 8.00795 8.64508 5.16645 12.2569 5.16645C15.8688 5.16645 18.8069 8.00795 18.8069 11.5003C18.8069 12.6924 18.4643 13.8087 17.8695 14.7623L18.7435 15.6074C19.5458 14.4269 20.0132 13.0155 20.0132 11.5003C20.0132 7.36463 16.5335 4 12.2569 4C7.97975 4 4.5 7.36463 4.5 11.5003C4.5 15.636 7.97975 19 12.2569 19C14.1075 19 15.8085 18.3701 17.1433 17.3203L18.7948 18.9172H20.5ZM8.85076 11.5003C8.85076 9.68414 10.3786 8.20682 12.2569 8.20682C14.1352 8.20682 15.6631 9.68414 15.6631 11.5003C15.6631 13.3165 14.1352 14.7938 12.2569 14.7938C10.3786 14.7938 8.85076 13.3159 8.85076 11.5003Z" fill="#CA3E1E"/>
</svg>
