<svg width="25" height="24" viewBox="0 0 25 24" fill="none" xmlns="http://www.w3.org/2000/svg">
<rect x="0.5" width="24" height="24" rx="6" fill="#121318"/>
<path fill-rule="evenodd" clip-rule="evenodd" d="M14.9567 8.23199C14.9567 5.79113 13.7388 3.6921 12.8125 3.00858C12.8087 3.00643 12.7416 2.96959 12.7473 3.0672L12.746 3.07021C12.6691 7.78295 10.2031 9.06027 8.8474 10.7809C5.71874 14.7516 8.62837 19.1051 11.5913 19.9097C13.2491 20.3599 11.2084 19.1131 10.9456 16.4796C10.6278 13.2966 14.9567 10.8669 14.9567 8.23199Z" fill="white"/>
<path fill-rule="evenodd" clip-rule="evenodd" d="M16.3785 9.83652C16.3595 9.82391 16.3325 9.81531 16.3139 9.84541C16.2629 10.4386 15.6422 11.7077 14.8555 12.8729C12.1873 16.8255 13.7078 18.7308 14.5628 19.7542C15.0593 20.3482 14.5628 19.7542 15.8038 19.147C15.9009 19.0995 18.225 17.827 18.4766 14.9278C18.7202 12.1203 16.9931 10.3506 16.3785 9.83652Z" fill="#2F96DA"/>
</svg>
