<svg width="24" height="24" viewBox="0 0 24 24" fill="none" xmlns="http://www.w3.org/2000/svg">
<rect width="24" height="24" rx="6" fill="#121318"/>
<g clip-path="url(#clip0_222_3014)">
<path d="M19.7234 11.687L18.9664 12.4918L21.1128 14.7841C21.1595 14.834 21.223 14.8621 21.2892 14.8621C21.3554 14.8621 21.4188 14.834 21.4657 14.7841L21.8679 14.3546C21.9146 14.3046 21.9409 14.2368 21.9409 14.1661C21.9409 14.0954 21.9146 14.0276 21.8679 13.9775L19.7232 11.687H19.7234Z" fill="white"/>
<path fill-rule="evenodd" clip-rule="evenodd" d="M9.81748 11.3479C10.4873 11.3479 11.0085 11.9112 11.0085 12.5755C11.0085 13.2397 10.4883 13.8028 9.81748 13.8028V13.803H8.03449C7.89655 13.803 7.78479 13.9224 7.78479 14.07V14.6768C7.78479 14.8241 7.89655 14.944 8.03449 14.944H9.81771V14.9437C11.0529 14.9437 12.0758 13.8959 12.0758 12.5755C12.0758 11.2545 11.0515 10.207 9.81748 10.207H8.03426C7.8963 10.207 7.78455 10.3266 7.78455 10.4742V11.081C7.78455 11.2283 7.8963 11.3481 8.03426 11.3481H9.81748V11.3479Z" fill="white"/>
<path d="M18.9681 12.4895L19.7219 13.2978L21.8682 11.0055C21.915 10.9555 21.9413 10.8877 21.9413 10.817C21.9413 10.7463 21.915 10.6784 21.8682 10.6284L21.4658 10.1989C21.4189 10.1489 21.3555 10.1208 21.2891 10.1208C21.2229 10.1208 21.1594 10.1489 21.1126 10.1989L18.9681 12.4895ZM6.10608 10.4764C6.10608 10.329 6.21761 10.2099 6.35532 10.2094L6.92346 10.2079C6.95632 10.2078 6.98888 10.2146 7.01929 10.2279C7.04969 10.2412 7.07733 10.2608 7.10063 10.2856C7.12393 10.3103 7.14244 10.3397 7.15508 10.3721C7.16772 10.4045 7.17426 10.4393 7.17433 10.4744V14.677C7.17433 14.8243 7.06257 14.9437 6.92463 14.9437H6.35602C6.21807 14.9437 6.10631 14.8243 6.10631 14.677L6.10608 10.4764ZM15.8686 13.8052C16.0065 13.8052 16.1182 13.9243 16.1184 14.0714L16.1194 14.6787C16.1194 14.7495 16.093 14.8175 16.0463 14.8676C15.9994 14.9177 15.9358 14.9458 15.8695 14.9459H12.9367C12.7987 14.9459 12.6867 14.8266 12.6867 14.679V14.0722C12.6867 13.9248 12.7987 13.805 12.9367 13.805H15.8686V13.8052Z" fill="white"/>
<path d="M17.2026 12.0061C17.3405 12.0061 17.4521 12.125 17.4526 12.2723L17.454 12.8791C17.4541 12.9142 17.4476 12.949 17.4351 12.9814C17.4227 13.0139 17.4043 13.0434 17.3811 13.0682C17.3579 13.0931 17.3303 13.1128 17.2999 13.1263C17.2697 13.1398 17.2371 13.1467 17.2043 13.1468H12.9352C12.7973 13.1468 12.6853 13.0274 12.6853 12.8798V12.273C12.6853 12.1257 12.7973 12.0059 12.9355 12.0059H17.2026V12.0061Z" fill="#D4002D"/>
<path fill-rule="evenodd" clip-rule="evenodd" d="M5.50148 10.4699C5.5013 10.3992 5.47492 10.3316 5.42811 10.2817C5.38131 10.2318 5.31791 10.2037 5.25178 10.2037H2.31988C2.25361 10.2037 2.19008 10.2319 2.14322 10.2819C2.09636 10.332 2.07001 10.3998 2.06995 10.4706V11.0774C2.06995 11.225 2.18194 11.3446 2.31988 11.3446H3.25205V14.677C3.25205 14.8243 3.36404 14.9437 3.502 14.9437H4.07037C4.20832 14.9437 4.32031 14.8243 4.32031 14.677V11.3446H5.25295C5.39089 11.3446 5.50311 11.2247 5.50265 11.0772L5.50148 10.4699Z" fill="white"/>
<path d="M15.8682 10.2072C16.0062 10.2072 16.1176 10.3263 16.1179 10.4737L16.119 11.0804C16.1191 11.1155 16.1127 11.1503 16.1002 11.1827C16.0875 11.2151 16.0691 11.2446 16.0459 11.2694C16.0227 11.2943 15.9952 11.314 15.9649 11.3274C15.9345 11.3409 15.902 11.3479 15.8691 11.3479H12.9356C12.7977 11.3479 12.6857 11.2285 12.6857 11.0812V10.4742C12.6857 10.3268 12.7977 10.2072 12.9358 10.2072H15.8682Z" fill="white"/>
<path d="M19.7214 11.687L20.4782 12.4918L18.3321 14.7841C18.2852 14.834 18.2217 14.8621 18.1555 14.8621C18.0894 14.8621 18.0259 14.834 17.9791 14.7841L17.5769 14.3546C17.5301 14.3046 17.5038 14.2368 17.5038 14.1661C17.5038 14.0954 17.5301 14.0275 17.5769 13.9775L19.7214 11.687Z" fill="#D4002D"/>
<path d="M20.4768 12.4895L19.723 13.2978L17.5769 11.0055C17.5302 10.9555 17.5039 10.8877 17.5039 10.817C17.5039 10.7463 17.5302 10.6785 17.5769 10.6284L17.9791 10.1989C18.026 10.149 18.0894 10.121 18.1556 10.121C18.2218 10.121 18.2853 10.149 18.3322 10.1989L20.4768 12.4895Z" fill="#D4002D"/>
</g>
<defs>
<clipPath id="clip0_222_3014">
<rect width="20" height="5" fill="white" transform="translate(2 10)"/>
</clipPath>
</defs>
</svg>
