<svg width="24" height="24" viewBox="0 0 24 24" fill="none" xmlns="http://www.w3.org/2000/svg">
<rect width="24" height="24" rx="6" fill="#121318"/>
<path d="M12 4C7.56364 4 4 7.56364 4 12C4 16.4364 7.56364 20 12 20C16.4364 20 20 16.4364 20 12C19.9273 7.56364 16.3636 4 12 4ZM12.7273 13.3091C12.9455 13.5273 13.0909 13.7455 13.0909 14.1091C13.0909 14.6909 12.5818 15.2 12 15.2C11.7091 15.2 11.4182 15.0545 11.2 14.8364C10.8364 14.5455 10.4 14.3273 9.81818 14.3273C9.23636 14.3273 8.8 14.5455 8.43636 14.8364L8.36364 14.9091C8.14545 15.0545 7.92727 15.2 7.63636 15.2C7.34545 15.2 7.12727 15.1273 6.90909 14.9091C6.83636 14.8364 6.83636 14.8364 6.76364 14.7636C6.76364 14.7636 6.76364 14.7636 6.76364 14.6909L6.69091 14.6182C6.69091 14.5455 6.61818 14.4727 6.61818 14.4C6.61818 14.3273 6.54545 14.1818 6.54545 14.1091C6.54545 13.9636 6.54545 13.8909 6.61818 13.8182C6.61818 13.7455 6.69091 13.6727 6.69091 13.6C6.69091 13.6 6.69091 13.5273 6.76364 13.5273C6.76364 13.5273 6.76364 13.5273 6.76364 13.4545C6.90909 13.4545 6.90909 13.4545 6.90909 13.3818L6.98182 13.3091C7.27273 12.9455 7.49091 12.5091 7.49091 12C7.49091 11.4909 7.34545 11.0545 6.98182 10.6909C6.83636 10.4727 6.69091 10.1818 6.69091 9.81818C6.69091 9.23636 7.2 8.72727 7.78182 8.72727C8.36364 8.72727 8.8 9.23636 8.8 9.81818C8.8 10.1091 8.65455 10.4 8.43636 10.6182C8.14545 10.9818 7.92727 11.4909 7.92727 12C7.92727 12.5091 8.14545 13.0182 8.43636 13.3818L8.50909 13.4545C8.87273 13.7455 9.30909 13.9636 9.81818 13.9636C10.3273 13.9636 10.7636 13.8182 11.1273 13.4545C11.1273 13.3818 11.2 13.3818 11.2727 13.3091C11.5636 12.9455 11.7818 12.5091 11.7818 12C11.7818 11.4909 11.6364 11.0545 11.2727 10.6909C11.0545 10.4727 10.9091 10.1818 10.9091 9.81818C10.9091 9.23636 11.4182 8.72727 12 8.72727C12.5818 8.72727 13.0909 9.23636 13.0909 9.81818C13.0909 10.1091 12.9455 10.4 12.7273 10.6182C12.4364 10.9818 12.2182 11.4182 12.2182 12C12.2182 12.5091 12.3636 12.9455 12.7273 13.3091ZM14.1091 13.0182C13.5273 13.0182 13.0182 12.5091 13.0182 11.9273C13.0182 11.3455 13.5273 10.8364 14.1091 10.8364C14.6909 10.8364 15.2 11.3455 15.2 11.9273C15.2 12.5818 14.6909 13.0182 14.1091 13.0182ZM16.9455 13.3091C17.0182 13.3818 17.0182 13.3818 16.9455 13.3091C17.0182 13.4545 17.0909 13.4545 17.0909 13.4545C17.0909 13.4545 17.0909 13.4545 17.0909 13.5273L17.1636 13.6C17.1636 13.6727 17.2364 13.7455 17.2364 13.8182C17.2364 13.8909 17.3091 14.0364 17.3091 14.1091C17.3091 14.2545 17.3091 14.3273 17.2364 14.4C17.2364 14.4727 17.1636 14.5455 17.1636 14.6182C17.1636 14.6182 17.1636 14.6909 17.0909 14.6909C17.0909 14.6909 17.0909 14.6909 17.0909 14.7636C17.0182 14.8364 17.0182 14.8364 16.9455 14.9091C16.7273 15.0545 16.5091 15.2 16.2182 15.2C15.9273 15.2 15.7091 15.1273 15.4909 14.9091C15.4182 14.8364 15.4182 14.8364 15.3455 14.7636C15.3455 14.7636 15.3455 14.7636 15.3455 14.6909L15.2727 14.6182C15.2727 14.5455 15.2 14.4727 15.2 14.4C15.2 14.3273 15.1273 14.1818 15.1273 14.1091C15.1273 13.9636 15.1273 13.8909 15.2 13.8182C15.2 13.7455 15.2727 13.6727 15.2727 13.6C15.2727 13.6 15.2727 13.5273 15.3455 13.5273C15.3455 13.5273 15.3455 13.5273 15.3455 13.4545L15.4182 13.3818L15.4909 13.3091C15.7818 12.9455 16 12.5091 16 12C16 11.4909 15.8545 11.0545 15.4909 10.6909C15.2727 10.4727 15.1273 10.1818 15.1273 9.89091C15.1273 9.30909 15.6364 8.8 16.2182 8.8C16.8 8.8 17.3091 9.30909 17.3091 9.89091C17.3091 10.1818 17.1636 10.4727 16.9455 10.6909C16.6545 11.0545 16.4364 11.4909 16.4364 12.0727C16.4364 12.5091 16.6545 12.9455 16.9455 13.3091Z" fill="#F8E19A"/>
</svg>
