<svg width="24" height="24" viewBox="0 0 24 24" fill="none" xmlns="http://www.w3.org/2000/svg">
<rect width="24" height="24" rx="6" fill="#121318"/>
<g clip-path="url(#clip0_222_2831)">
<path d="M16.1166 13.2206V8.61768H16.9947V13.2206H16.1166Z" fill="#F7A600"/>
<path d="M5.88252 14.5879H4V9.98499H5.80682C6.68494 9.98499 7.19661 10.4892 7.19661 11.278C7.19661 11.7886 6.868 12.1185 6.64055 12.2284C6.91204 12.3576 7.25956 12.6484 7.25956 13.2629C7.25956 14.1224 6.68494 14.5879 5.88252 14.5879ZM5.73731 10.7868H4.87812V11.847H5.73731C6.10997 11.847 6.31849 11.6336 6.31849 11.3167C6.31849 11.0001 6.10997 10.7868 5.73731 10.7868ZM5.79409 12.6551H4.87812V13.7865H5.79409C6.1922 13.7865 6.38145 13.5281 6.38145 13.2175C6.38145 12.9073 6.19185 12.6551 5.79409 12.6551Z" fill="white"/>
<path d="M9.93797 12.7002V14.5879H9.06604V12.7002L7.71411 9.98499H8.66793L9.5082 11.8403L10.3357 9.98499H11.2896L9.93797 12.7002Z" fill="white"/>
<path d="M13.779 14.5879H11.8965V9.98499H13.7033C14.5814 9.98499 15.0931 10.4892 15.0931 11.278C15.0931 11.7886 14.7645 12.1185 14.537 12.2284C14.8085 12.3576 15.1561 12.6484 15.1561 13.2629C15.1561 14.1224 14.5814 14.5879 13.779 14.5879ZM13.6338 10.7868H12.7746V11.847H13.6338C14.0065 11.847 14.215 11.6336 14.215 11.3167C14.215 11.0001 14.0065 10.7868 13.6338 10.7868ZM13.6906 12.6551H12.7746V13.7865H13.6906C14.0887 13.7865 14.2779 13.5281 14.2779 13.2175C14.2779 12.9073 14.0887 12.6551 13.6906 12.6551Z" fill="white"/>
<path d="M19.8248 10.7868V14.5883H18.9467V10.7868H17.7716V9.98499H20.9999V10.7868H19.8248Z" fill="white"/>
</g>
<defs>
<clipPath id="clip0_222_2831">
<rect width="17" height="7" fill="white" transform="translate(4 8)"/>
</clipPath>
</defs>
</svg>
