<svg width="24" height="24" viewBox="0 0 24 24" fill="none" xmlns="http://www.w3.org/2000/svg">
<rect width="24" height="24" rx="6" fill="#121318"/>
<path d="M9.92629 11.7307L9.75108 11.5583C9.61842 11.4289 9.39054 11.5205 9.39054 11.7041V14.1657C9.39054 14.2794 9.48598 14.3719 9.6026 14.3719H12.1221C12.3099 14.3719 12.4045 14.1496 12.2709 14.0203C12.1885 13.9398 12.1885 13.8094 12.2709 13.7291L14.9506 11.1022C15.0332 11.0222 15.0332 10.8919 14.9506 10.811L14.7065 10.5733C14.5738 10.4438 14.6683 10.2214 14.8557 10.2214H17.3736C17.49 10.2214 17.5853 10.3138 17.5853 10.4276V12.889C17.5853 13.0726 17.357 13.1645 17.224 13.0348L17.0543 12.869C16.9714 12.7863 16.8381 12.7863 16.7569 12.869L12.239 17.2822C12.1569 17.3626 12.0238 17.3626 11.9407 17.2822L6.41329 11.8804C6.3302 11.7992 6.3302 11.6686 6.41329 11.588L14.0651 4.11031C14.1473 4.02981 14.1473 3.89847 14.0651 3.81833L12.2658 2.06011C12.1835 1.97996 12.0501 1.97996 11.9674 2.06011L2.06151 11.7413C1.9795 11.8218 1.9795 11.9531 2.06151 12.0332L11.9663 21.713C12.0487 21.793 12.1832 21.793 12.2652 21.713L22.1695 12.0332C22.2514 11.9528 22.2514 11.8221 22.1695 11.7419L16.3424 6.0471C16.2609 5.96696 16.1268 5.96696 16.0443 6.0471L10.2261 11.7308C10.143 11.812 10.0094 11.812 9.92629 11.7308V11.7307Z" fill="#DE5959"/>
</svg>
