<svg width="25" height="24" viewBox="0 0 25 24" fill="none" xmlns="http://www.w3.org/2000/svg">
<rect x="0.5" width="24" height="24" rx="6" fill="#121318"/>
<path fill-rule="evenodd" clip-rule="evenodd" d="M9.92582 12.0016L14.4672 16.7412L17.3337 13.75C17.8462 13.2684 18.6304 13.2898 19.1181 13.7988C19.6058 14.3077 19.6264 15.126 19.1648 15.6609L15.382 19.6089C14.8739 20.1304 14.059 20.1304 13.5509 19.6089L8.09323 13.9124V17.2983C8.09323 18.0455 7.51272 18.6513 6.79662 18.6513C6.08052 18.6513 5.5 18.0455 5.5 17.2983V6.70054C5.5 5.9533 6.08052 5.34753 6.79662 5.34753C7.51272 5.34753 8.09323 5.9533 8.09323 6.70054V10.0864L13.5502 4.39138C14.0581 3.86954 14.8734 3.86954 15.3813 4.39138L19.1669 8.33871C19.6285 8.87357 19.6079 9.69185 19.1202 10.2008C18.6325 10.7097 17.8483 10.7311 17.3358 10.2495L14.4693 7.25836L9.92582 12.0016ZM14.4693 10.6471C13.9442 10.6468 13.4707 10.9767 13.2695 11.4828C13.0684 11.9889 13.1793 12.5716 13.5505 12.9591C13.9216 13.3467 14.48 13.4627 14.9651 13.2531C15.4503 13.0435 15.7666 12.5495 15.7666 12.0016C15.7668 11.6424 15.6302 11.2978 15.3869 11.0436C15.1436 10.7895 14.8135 10.6466 14.4693 10.6464V10.6471Z" fill="#23AF91"/>
</svg>
