<svg width="24" height="24" viewBox="0 0 24 24" fill="none" xmlns="http://www.w3.org/2000/svg">
<rect width="24" height="24" rx="6" fill="#121318"/>
<path d="M11.7094 4C7.43419 4 4 7.56364 4 12C4 16.4364 7.43419 20 11.7094 20C15.9846 20 19.4188 16.4364 19.4188 12C19.3487 7.56364 15.9145 4 11.7094 4ZM12.4103 13.3091C12.6205 13.5273 12.7607 13.7455 12.7607 14.1091C12.7607 14.6909 12.2701 15.2 11.7094 15.2C11.4291 15.2 11.1487 15.0545 10.9385 14.8364C10.588 14.5455 10.1675 14.3273 9.60684 14.3273C9.04615 14.3273 8.62564 14.5455 8.27521 14.8364L8.20513 14.9091C7.99487 15.0545 7.78462 15.2 7.50427 15.2C7.22393 15.2 7.01368 15.1273 6.80342 14.9091C6.73333 14.8364 6.73333 14.8364 6.66325 14.7636C6.66325 14.7636 6.66325 14.7636 6.66325 14.6909L6.59316 14.6182C6.59316 14.5455 6.52308 14.4727 6.52308 14.4C6.52308 14.3273 6.45299 14.1818 6.45299 14.1091C6.45299 13.9636 6.45299 13.8909 6.52308 13.8182C6.52308 13.7455 6.59316 13.6727 6.59316 13.6C6.59316 13.6 6.59316 13.5273 6.66325 13.5273C6.66325 13.5273 6.66325 13.5273 6.66325 13.4545C6.80342 13.4545 6.80342 13.4545 6.80342 13.3818L6.8735 13.3091C7.15385 12.9455 7.3641 12.5091 7.3641 12C7.3641 11.4909 7.22393 11.0545 6.8735 10.6909C6.73333 10.4727 6.59316 10.1818 6.59316 9.81818C6.59316 9.23636 7.08376 8.72727 7.64444 8.72727C8.20513 8.72727 8.62564 9.23636 8.62564 9.81818C8.62564 10.1091 8.48547 10.4 8.27521 10.6182C7.99487 10.9818 7.78462 11.4909 7.78462 12C7.78462 12.5091 7.99487 13.0182 8.27521 13.3818L8.3453 13.4545C8.69573 13.7455 9.11624 13.9636 9.60684 13.9636C10.0974 13.9636 10.5179 13.8182 10.8684 13.4545C10.8684 13.3818 10.9385 13.3818 11.0085 13.3091C11.2889 12.9455 11.4991 12.5091 11.4991 12C11.4991 11.4909 11.359 11.0545 11.0085 10.6909C10.7983 10.4727 10.6581 10.1818 10.6581 9.81818C10.6581 9.23636 11.1487 8.72727 11.7094 8.72727C12.2701 8.72727 12.7607 9.23636 12.7607 9.81818C12.7607 10.1091 12.6205 10.4 12.4103 10.6182C12.1299 10.9818 11.9197 11.4182 11.9197 12C11.9197 12.5091 12.0598 12.9455 12.4103 13.3091ZM13.7419 13.0182C13.1812 13.0182 12.6906 12.5091 12.6906 11.9273C12.6906 11.3455 13.1812 10.8364 13.7419 10.8364C14.3026 10.8364 14.7932 11.3455 14.7932 11.9273C14.7932 12.5818 14.3026 13.0182 13.7419 13.0182ZM16.4752 13.3091C16.5453 13.3818 16.5453 13.3818 16.4752 13.3091C16.5453 13.4545 16.6154 13.4545 16.6154 13.4545C16.6154 13.4545 16.6154 13.4545 16.6154 13.5273L16.6855 13.6C16.6855 13.6727 16.7556 13.7455 16.7556 13.8182C16.7556 13.8909 16.8256 14.0364 16.8256 14.1091C16.8256 14.2545 16.8256 14.3273 16.7556 14.4C16.7556 14.4727 16.6855 14.5455 16.6855 14.6182C16.6855 14.6182 16.6855 14.6909 16.6154 14.6909C16.6154 14.6909 16.6154 14.6909 16.6154 14.7636C16.5453 14.8364 16.5453 14.8364 16.4752 14.9091C16.265 15.0545 16.0547 15.2 15.7744 15.2C15.494 15.2 15.2838 15.1273 15.0735 14.9091C15.0034 14.8364 15.0034 14.8364 14.9333 14.7636C14.9333 14.7636 14.9333 14.7636 14.9333 14.6909L14.8632 14.6182C14.8632 14.5455 14.7932 14.4727 14.7932 14.4C14.7932 14.3273 14.7231 14.1818 14.7231 14.1091C14.7231 13.9636 14.7231 13.8909 14.7932 13.8182C14.7932 13.7455 14.8632 13.6727 14.8632 13.6C14.8632 13.6 14.8632 13.5273 14.9333 13.5273C14.9333 13.5273 14.9333 13.5273 14.9333 13.4545L15.0034 13.3818L15.0735 13.3091C15.3538 12.9455 15.5641 12.5091 15.5641 12C15.5641 11.4909 15.4239 11.0545 15.0735 10.6909C14.8632 10.4727 14.7231 10.1818 14.7231 9.89091C14.7231 9.30909 15.2137 8.8 15.7744 8.8C16.335 8.8 16.8256 9.30909 16.8256 9.89091C16.8256 10.1818 16.6855 10.4727 16.4752 10.6909C16.1949 11.0545 15.9846 11.4909 15.9846 12.0727C15.9846 12.5091 16.1949 12.9455 16.4752 13.3091Z" fill="#F8E19A"/>
</svg>
