<svg width="25" height="24" viewBox="0 0 25 24" fill="none" xmlns="http://www.w3.org/2000/svg">
<rect x="0.5" width="24" height="24" rx="6" fill="#121318"/>
<path d="M21.9243 14.563L17.6562 7.15908C16.7208 5.61538 14.4385 5.59875 13.535 7.22421L9.0536 14.9233C8.21662 16.3354 9.25038 18.1077 10.9257 18.1077H19.9066C21.5972 18.1077 22.861 16.2855 21.9256 14.5616" fill="#00B897"/>
<path d="M15.766 15.1382L15.5027 14.6781C15.256 14.2513 14.7142 13.3312 14.7142 13.3312L11.103 7.05939C10.1676 5.66396 7.95047 5.54894 7.01511 7.30605L2.81219 14.5783C1.94195 16.1054 2.97571 18.0912 4.86445 18.1078H19.8705C17.555 18.1244 16.8164 16.9258 15.766 15.1368" fill="#76FCB2"/>
</svg>
