<svg width="25" height="24" viewBox="0 0 25 24" fill="none" xmlns="http://www.w3.org/2000/svg">
<rect x="0.5" width="24" height="24" rx="6" fill="#121318"/>
<path d="M6.5 16.7879C6.5 19.5103 8.72218 21.7172 11.4634 21.7172V11.8586C11.4634 14.581 9.24124 16.7879 6.50071 16.7879" fill="#38D102"/>
<path d="M6.5 6.92929V16.7879C9.24124 16.7879 11.4634 14.581 11.4634 11.8586C11.4634 9.13621 9.24124 6.92929 6.50071 6.92929M13.9448 11.8586C13.9448 14.581 16.167 16.7879 18.9082 16.7879V6.92929C18.9082 9.65167 16.6867 11.8586 13.9455 11.8586" fill="white"/>
<path d="M13.9447 2V11.8586C16.6859 11.8586 18.9081 9.65168 18.9081 6.9293C18.9081 4.20692 16.6867 2 13.9454 2" fill="#3CEAF3"/>
</svg>
