<svg width="24" height="24" viewBox="0 0 24 24" fill="none" xmlns="http://www.w3.org/2000/svg">
<rect width="24" height="24" rx="6" fill="#121318"/>
<path d="M11.2133 11.7753L12.8647 14.2505L13.4727 7.65866L11.1296 10.2683L11.2133 11.7753Z" fill="#D01F36"/>
<path d="M14.9018 6.34983L13.291 14.8909L13.6356 15.4071C13.6999 15.5032 13.7733 15.594 13.8608 15.6708C13.9928 15.7861 14.1421 15.8713 14.2997 15.9275L18.7634 2.07672L14.9018 6.34983Z" fill="#D01F36"/>
<path d="M13.0044 16.2976L13.0503 16.262L13.0189 16.2255L13.0044 16.2976Z" fill="#D01F36"/>
<path d="M4.92794 7.59082L12.7298 16.8214L12.5177 16.9854L5.05263 9.48704L5.6292 12.8898L11.1384 17.97L10.959 18.1162L5.73021 14.4942L6.08157 17.2894L8.69139 18.6099C9.19692 18.8029 9.21867 19.4887 8.72667 19.7117L4.93615 21.8605L8.55124 22L13.3861 19.6054L16.4933 18.0661L16.5015 18.0623C16.7886 17.9405 17.3434 17.697 17.8209 17.4374C18.5014 17.0664 18.9397 17.7264 18.9397 17.7264C19.2583 17.0383 18.2573 16.4195 17.2685 16.0133C17.255 16.0078 17.2424 16.0026 17.2293 15.9979C17.6068 16.2851 17.9582 16.6022 18.1056 16.8748C18.0703 16.8538 16.9399 16.1755 15.5973 15.9895C15.1096 16.7193 13.9714 16.784 13.3823 16.0658L4 2L4.92794 7.59082Z" fill="#D01F36"/>
</svg>
